<svg xmlns="http://www.w3.org/2000/svg" id="a" width="1024" height="1024" data-name="Layer 1" viewBox="0 0 1024 1024"><defs><style>.b{fill:#fff}</style></defs><path d="M90.09 92.85c0-24.88-20.17-45.04-45.04-45.04S0 67.97 0 92.85c0 20.2 13.29 37.29 31.61 43v198.48c-16.97 2.25-30.08 16.76-30.08 34.36v178.12c0 19.15 15.53 34.66 34.68 34.66h36.18c-.44-3.78-.66-7.64-.66-11.54V448.75c0-39.67 5.27-78.14 15.11-114.74H58.47V135.85c18.32-5.72 31.61-22.81 31.61-43h.02ZM507.11 41.47c-223.33.62-403.14 183.96-403.14 407.28v121.16c0 37.56 30.43 67.99 67.99 67.99h672.58c37.54 0 67.97-30.43 67.97-67.99V445.73c0-111.62-45.24-212.7-118.4-285.85-73.4-73.42-174.89-118.72-286.99-118.42Zm292.6 445.82c0 29.86-24.2 54.08-54.08 54.08H270.84c-29.86 0-54.08-24.2-54.08-54.08v-39.03c0-160.23 131.08-293.91 291.31-294 160.79-.08 291.63 130.72 291.63 291.46v41.56Z" class="b"/><circle cx="361.4" cy="409.47" r="75.23" class="b"/><circle cx="651.46" cy="409.48" r="75.23" class="b" transform="rotate(-45 651.452 409.48)"/><path d="M991.2 334.06V135.85c18.32-5.72 31.61-22.81 31.61-43 0-24.88-20.17-45.04-45.04-45.04s-45.04 20.17-45.04 45.04c0 20.2 13.29 37.29 31.61 43v198.16h-33.97c9.47 36.01 14.36 73.49 14.36 111.72v124.18q0 5.88-.66 11.55h45.27c19.15 0 34.66-15.51 34.66-34.66V368.68c0-18.53-14.52-33.66-32.8-34.63ZM700.38 681.49h-371.8L225.08 882.1c-23.65 45.82 9.62 100.43 61.19 100.43h456.42c51.57 0 84.84-54.6 61.19-100.43z" class="b"/></svg>