<?xml version="1.0" encoding="UTF-8"?>
<svg id="Layer_1" xmlns="http://www.w3.org/2000/svg" version="1.1" viewBox="0 0 1024 989.6">
  <!-- Generator: Adobe Illustrator 30.2.0, SVG Export Plug-In . SVG Version: 2.1.1 Build 45)  -->
  <defs>
    <style>
      .st0 {
        fill: #fff;
      }
    </style>
  </defs>
  <g id="a">
    <path class="st0" d="M937.3,325c-27.2-27.2-58.8-48.5-94.1-63.4-36.5-15.5-75.3-23.3-115.2-23.3h-194.5v-66.7c37.7-9.6,65.7-43.8,65.7-84.5S560.1,0,512,0s-87.1,39-87.1,87.1,27.9,74.9,65.7,84.5v66.7h-194.5c-39.9,0-78.7,7.8-115.2,23.3-35.3,14.9-66.9,36.2-94.1,63.4-27.2,27.2-48.5,58.8-63.4,94.1C7.8,455.6,0,494.4,0,534.3s7.8,78.7,23.3,115.2c14.9,35.3,36.3,66.9,63.4,94.1,27.1,27.2,58.8,48.5,94.1,63.4,36.5,15.5,75.3,23.3,115.2,23.3h3.7c96.6,0,178.2,64.6,203.9,152.9,1.1,3.7,4.5,6.2,8.4,6.2s7.3-2.5,8.4-6.2c25.7-88.4,107.2-152.9,203.9-152.9h3.7c39.9,0,78.7-7.8,115.2-23.3,35.3-14.9,66.9-36.2,94.1-63.4,27.1-27.2,48.5-58.8,63.4-94.1,15.4-36.5,23.3-75.3,23.3-115.2s-7.8-78.7-23.3-115.2c-14.9-35.3-36.3-66.9-63.4-94.1h0ZM895.1,701.6c-42.8,42.8-101.9,69.3-167.2,69.3h-431.9c-130.6,0-236.5-105.9-236.5-236.5s26.5-124.4,69.3-167.2c42.8-42.8,101.9-69.2,167.2-69.2h431.9c130.6,0,236.5,105.9,236.5,236.4s-26.5,124.4-69.3,167.2h0Z"/>
    <circle class="st0" cx="728.9" cy="536.2" r="87.1"/>
    <circle class="st0" cx="295.1" cy="536.2" r="87.1"/>
  </g>
</svg>